P3
50 50
255
255
255
255
255
255
255
255
255
255
255
255
255
255
255
255
255
255
255
255
255
255
255
255
255
255
255
255
255
255
255
255
255
255
255
255
255
255
255
255
255
255
255
255
255
255
255
255
255
255
255
255
255
255
255
255
255
255
255
255
255
255
255
255
255
255
255
255
255
255
255
255
255
255
255
255
255
255
255
255
255
255
255
255
255
255
255
255
255
255
255
255
255
255
0
162
232
0
162
232
0
162
232
0
162
232
0
162
232
0
162
232
255
255
255
255
255
255
255
255
255
255
255
255
255
255
255
255
255
255
255
255
255
255
255
255
255
255
255
255
255
255
255
255
255
255
255
255
255
255
255
255
255
255
255
255
255
255
255
255
255
255
255
255
255
255
255
255
255
255
255
255
255
255
255
255
255
255
255
255
255
255
255
255
255
255
255
255
255
255
255
255
255
255
255
255
255
255
255
255
255
255
255
255
255
255
255
255
255
255
255
255
255
255
255
255
255
255
255
255
255
255
255
255
255
255
255
255
255
255
255
255
255
255
255
0
162
232
0
162
232
0
162
232
0
162
232
0
162
232
0
162
232
0
162
232
0
162
232
0
162
232
0
162
232
0
162
232
255
255
255
255
255
255
255
255
255
255
255
255
255
255
255
255
255
255
255
255
255
255
255
255
255
255
255
255
255
255
255
255
255
255
255
255
255
255
255
255
255
255
255
255
255
255
255
255
255
255
255
255
255
255
255
255
255
163
73
164
163
73
164
163
73
164
163
73
164
255
255
255
255
255
255
255
255
255
255
255
255
255
255
255
255
255
255
255
255
255
255
255
255
255
255
255
255
255
255
255
255
255
255
255
255
255
255
255
255
255
255
255
255
255
0
162
232
0
162
232
0
162
232
0
162
232
0
162
232
0
162
232
0
162
232
0
162
232
0
162
232
0
162
232
0
162
232
0
162
232
0
162
232
255
255
255
255
255
255
255
255
255
255
255
255
255
255
255
255
255
255
255
255
255
255
255
255
255
255
255
255
255
255
255
255
255
255
255
255
255
255
255
255
255
255
255
255
255
255
255
255
163
73
164
163
73
164
163
73
164
163
73
164
163
73
164
163
73
164
163
73
164
163
73
164
255
255
255
255
255
255
255
255
255
255
255
255
255
255
255
255
255
255
255
174
201
255
174
201
255
174
201
255
174
201
255
174
201
0
162
232
0
162
232
0
162
232
0
162
232
0
162
232
0
162
232
0
162
232
0
162
232
0
162
232
0
162
232
0
162
232
0
162
232
0
162
232
0
162
232
0
162
232
0
162
232
0
162
232
255
255
255
255
255
255
255
255
255
255
255
255
255
255
255
255
255
255
255
255
255
255
255
255
255
255
255
255
255
255
255
255
255
255
255
255
255
255
255
163
73
164
163
73
164
163
73
164
163
73
164
163
73
164
163
73
164
163
73
164
163
73
164
163
73
164
163
73
164
255
255
255
255
255
255
255
174
201
255
174
201
255
174
201
255
174
201
255
174
201
255
174
201
255
174
201
255
174
201
0
162
232
0
162
232
0
162
232
0
162
232
0
162
232
0
162
232
0
162
232
0
162
232
0
162
232
0
162
232
0
162
232
0
162
232
0
162
232
0
162
232
0
162
232
0
162
232
0
162
232
0
162
232
255
255
255
255
255
255
255
255
255
255
255
255
255
255
255
255
255
255
255
255
255
255
255
255
255
255
255
255
255
255
255
255
255
163
73
164
163
73
164
163
73
164
163
73
164
163
73
164
163
73
164
163
73
164
163
73
164
163
73
164
163
73
164
163
73
164
163
73
164
255
174
201
255
174
201
255
174
201
255
174
201
255
174
201
255
174
201
255
174
201
255
174
201
0
162
232
0
162
232
0
162
232
0
162
232
0
162
232
0
162
232
0
162
232
255
174
201
255
255
255
255
255
255
255
255
255
255
255
255
0
162
232
0
162
232
0
162
232
0
162
232
0
162
232
0
162
232
0
162
232
255
255
255
255
255
255
255
255
255
255
255
255
255
255
255
255
255
255
255
255
255
255
255
255
255
255
255
255
255
255
255
255
255
163
73
164
163
73
164
163
73
164
163
73
164
163
73
164
163
73
164
163
73
164
163
73
164
163
73
164
163
73
164
163
73
164
163
73
164
255
174
201
255
174
201
255
174
201
255
174
201
255
174
201
255
174
201
255
174
201
0
162
232
0
162
232
0
162
232
0
162
232
0
162
232
0
162
232
0
162
232
255
174
201
255
174
201
255
174
201
255
174
201
255
255
255
255
255
255
255
255
255
0
162
232
0
162
232
0
162
232
0
162
232
0
162
232
0
162
232
0
162
232
255
255
255
255
255
255
255
255
255
255
255
255
255
255
255
255
255
255
255
255
255
255
255
255
255
255
255
163
73
164
163
73
164
163
73
164
163
73
164
163
73
164
163
73
164
255
255
255
255
255
255
163
73
164
163
73
164
163
73
164
163
73
164
163
73
164
163
73
164
255
174
201
255
174
201
255
174
201
255
174
201
255
174
201
255
174
201
0
162
232
0
162
232
0
162
232
0
162
232
0
162
232
0
162
232
255
174
201
255
174
201
255
174
201
255
174
201
255
174
201
255
174
201
255
255
255
255
255
255
255
255
255
0
162
232
0
162
232
0
162
232
0
162
232
0
162
232
0
162
232
0
162
232
255
255
255
255
255
255
255
255
255
255
255
255
255
255
255
255
255
255
255
255
255
255
255
255
163
73
164
163
73
164
163
73
164
163
73
164
163
73
164
163
73
164
255
255
255
255
255
255
255
174
201
163
73
164
163
73
164
163
73
164
163
73
164
163
73
164
255
174
201
255
174
201
255
174
201
255
255
255
255
255
255
0
162
232
0
162
232
0
162
232
0
162
232
0
162
232
0
162
232
255
174
201
255
174
201
255
174
201
255
174
201
255
174
201
255
174
201
255
174
201
255
174
201
255
255
255
255
255
255
255
255
255
0
162
232
0
162
232
0
162
232
0
162
232
0
162
232
0
162
232
255
255
255
255
255
255
255
255
255
255
255
255
255
255
255
255
255
255
255
255
255
163
73
164
163
73
164
163
73
164
163
73
164
163
73
164
163
73
164
255
255
255
255
255
255
255
174
201
255
174
201
163
73
164
163
73
164
163
73
164
163
73
164
163
73
164
163
73
164
255
255
255
255
255
255
255
255
255
255
255
255
0
162
232
0
162
232
0
162
232
0
162
232
0
162
232
255
255
255
255
255
255
255
174
201
255
174
201
255
174
201
255
174
201
255
174
201
255
174
201
255
174
201
255
174
201
255
255
255
255
255
255
255
255
255
0
162
232
0
162
232
0
162
232
0
162
232
0
162
232
255
255
255
255
255
255
255
255
255
255
255
255
255
255
255
255
255
255
255
255
255
163
73
164
163
73
164
163
73
164
163
73
164
163
73
164
255
255
255
255
255
255
255
174
201
255
174
201
255
174
201
255
174
201
163
73
164
163
73
164
163
73
164
163
73
164
163
73
164
255
255
255
255
255
255
255
255
255
0
162
232
0
162
232
0
162
232
0
162
232
0
162
232
0
162
232
255
255
255
255
255
255
255
255
255
255
255
255
255
174
201
255
174
201
255
174
201
255
174
201
255
174
201
255
174
201
255
174
201
255
255
255
255
255
255
0
162
232
0
162
232
0
162
232
0
162
232
0
162
232
0
162
232
255
255
255
255
255
255
255
255
255
255
255
255
255
255
255
255
255
255
163
73
164
163
73
164
163
73
164
163
73
164
163
73
164
255
255
255
255
174
201
255
174
201
255
174
201
255
174
201
255
174
201
163
73
164
163
73
164
163
73
164
163
73
164
163
73
164
255
255
255
255
255
255
255
255
255
0
162
232
0
162
232
0
162
232
0
162
232
0
162
232
255
255
255
255
255
255
255
255
255
255
255
255
255
255
255
255
255
255
255
174
201
255
174
201
255
174
201
255
174
201
255
174
201
255
174
201
255
174
201
255
255
255
255
255
255
0
162
232
0
162
232
0
162
232
0
162
232
0
162
232
255
255
255
255
255
255
255
255
255
255
255
255
255
255
255
163
73
164
163
73
164
163
73
164
163
73
164
163
73
164
163
73
164
255
255
255
255
174
201
255
174
201
255
174
201
255
174
201
255
174
201
163
73
164
163
73
164
163
73
164
163
73
164
163
73
164
163
73
164
255
255
255
255
255
255
0
162
232
0
162
232
0
162
232
0
162
232
0
162
232
255
255
255
255
255
255
255
255
255
255
255
255
255
255
255
255
255
255
255
255
255
255
174
201
255
174
201
255
174
201
255
174
201
255
174
201
255
174
201
255
255
255
255
255
255
0
162
232
0
162
232
0
162
232
0
162
232
0
162
232
255
255
255
255
255
255
255
255
255
255
255
255
255
255
255
163
73
164
163
73
164
163
73
164
163
73
164
163
73
164
255
255
255
255
174
201
255
174
201
255
174
201
255
174
201
255
174
201
255
174
201
255
255
255
163
73
164
163
73
164
163
73
164
163
73
164
163
73
164
255
255
255
0
162
232
0
162
232
0
162
232
0
162
232
0
162
232
0
162
232
255
255
255
255
255
255
255
255
255
255
255
255
255
255
255
255
255
255
255
255
255
255
255
255
255
174
201
255
174
201
255
174
201
255
174
201
255
174
201
255
174
201
255
255
255
0
162
232
0
162
232
0
162
232
0
162
232
0
162
232
0
162
232
255
255
255
255
255
255
255
255
255
255
255
255
163
73
164
163
73
164
163
73
164
163
73
164
163
73
164
255
255
255
255
174
201
255
174
201
255
174
201
255
174
201
255
174
201
255
255
255
255
255
255
163
73
164
163
73
164
163
73
164
163
73
164
163
73
164
255
255
255
0
162
232
0
162
232
0
162
232
0
162
232
0
162
232
255
255
255
255
255
255
255
255
255
255
255
255
255
255
255
255
255
255
255
255
255
255
255
255
255
255
255
255
255
255
255
174
201
255
174
201
255
174
201
255
174
201
255
174
201
255
255
255
255
255
255
0
162
232
0
162
232
0
162
232
0
162
232
0
162
232
255
255
255
255
255
255
255
255
255
255
255
255
163
73
164
163
73
164
163
73
164
163
73
164
163
73
164
255
174
201
255
174
201
255
174
201
255
174
201
255
174
201
255
174
201
255
255
255
255
255
255
163
73
164
163
73
164
163
73
164
163
73
164
163
73
164
255
255
255
0
162
232
0
162
232
0
162
232
0
162
232
0
162
232
255
255
255
255
255
255
255
255
255
255
255
255
255
255
255
255
255
255
255
255
255
255
255
255
255
255
255
255
255
255
255
174
201
255
174
201
255
174
201
255
174
201
255
174
201
255
174
201
255
255
255
0
162
232
0
162
232
0
162
232
0
162
232
0
162
232
255
255
255
255
255
255
255
255
255
255
255
255
163
73
164
163
73
164
163
73
164
163
73
164
163
73
164
255
174
201
255
174
201
255
174
201
255
174
201
255
174
201
255
255
255
255
255
255
255
255
255
163
73
164
163
73
164
163
73
164
163
73
164
163
73
164
255
255
255
0
162
232
0
162
232
0
162
232
0
162
232
0
162
232
255
255
255
255
255
255
255
255
255
255
255
255
255
255
255
255
255
255
255
255
255
255
255
255
255
255
255
255
255
255
255
255
255
255
174
201
255
174
201
255
174
201
255
174
201
255
174
201
255
255
255
0
162
232
0
162
232
0
162
232
0
162
232
0
162
232
255
255
255
255
255
255
255
255
255
255
255
255
163
73
164
163
73
164
163
73
164
163
73
164
163
73
164
255
174
201
255
174
201
255
174
201
255
174
201
255
174
201
255
255
255
255
255
255
255
255
255
255
255
255
163
73
164
163
73
164
163
73
164
163
73
164
163
73
164
0
162
232
0
162
232
0
162
232
0
162
232
0
162
232
255
255
255
255
255
255
255
255
255
255
255
255
255
255
255
255
255
255
255
255
255
255
255
255
255
255
255
255
255
255
255
255
255
255
174
201
255
174
201
255
174
201
255
174
201
255
174
201
255
255
255
0
162
232
0
162
232
0
162
232
0
162
232
0
162
232
255
255
255
255
255
255
255
255
255
163
73
164
163
73
164
163
73
164
163
73
164
163
73
164
255
255
255
255
174
201
255
174
201
255
174
201
255
174
201
255
174
201
255
255
255
255
255
255
255
255
255
255
255
255
163
73
164
163
73
164
163
73
164
163
73
164
163
73
164
0
162
232
0
162
232
0
162
232
0
162
232
0
162
232
255
255
255
255
255
255
255
255
255
255
255
255
255
255
255
255
255
255
255
255
255
255
255
255
255
255
255
255
255
255
255
255
255
255
174
201
255
174
201
255
174
201
255
174
201
255
174
201
255
174
201
0
162
232
0
162
232
0
162
232
0
162
232
0
162
232
255
255
255
255
255
255
255
255
255
163
73
164
163
73
164
163
73
164
163
73
164
163
73
164
255
174
201
255
174
201
255
174
201
255
174
201
255
174
201
255
255
255
255
255
255
255
255
255
255
255
255
255
255
255
163
73
164
163
73
164
163
73
164
163
73
164
163
73
164
0
162
232
0
162
232
0
162
232
0
162
232
0
162
232
255
255
255
255
255
255
255
127
39
255
127
39
255
127
39
255
127
39
255
127
39
255
127
39
255
127
39
255
127
39
255
127
39
255
255
255
255
174
201
255
174
201
255
174
201
255
174
201
255
174
201
0
162
232
0
162
232
0
162
232
0
162
232
0
162
232
255
255
255
255
255
255
255
255
255
163
73
164
163
73
164
163
73
164
163
73
164
163
73
164
255
174
201
255
174
201
255
174
201
255
174
201
255
174
201
255
255
255
255
255
255
255
255
255
255
255
255
255
255
255
163
73
164
163
73
164
163
73
164
163
73
164
163
73
164
0
162
232
0
162
232
0
162
232
0
162
232
0
162
232
255
127
39
255
127
39
255
127
39
255
127
39
255
127
39
255
127
39
255
127
39
255
127
39
255
127
39
255
127
39
255
127
39
255
127
39
255
127
39
255
127
39
255
174
201
255
174
201
255
174
201
0
162
232
0
162
232
0
162
232
0
162
232
0
162
232
255
255
255
255
255
255
255
255
255
163
73
164
163
73
164
163
73
164
163
73
164
163
73
164
255
174
201
255
174
201
255
174
201
255
174
201
255
174
201
255
255
255
255
255
255
255
255
255
255
255
255
255
255
255
163
73
164
163
73
164
163
73
164
163
73
164
163
73
164
0
162
232
0
162
232
0
162
232
0
162
232
0
162
232
0
162
232
255
127
39
255
127
39
255
127
39
255
127
39
255
127
39
255
127
39
255
127
39
255
127
39
255
127
39
255
127
39
255
127
39
255
127
39
255
127
39
255
127
39
255
127
39
255
174
201
0
162
232
0
162
232
0
162
232
0
162
232
0
162
232
255
255
255
255
255
255
255
255
255
163
73
164
163
73
164
163
73
164
163
73
164
163
73
164
255
174
201
255
174
201
255
174
201
255
174
201
255
174
201
255
255
255
255
255
255
255
255
255
255
255
255
255
255
255
163
73
164
163
73
164
163
73
164
163
73
164
163
73
164
255
127
39
0
162
232
0
162
232
0
162
232
0
162
232
0
162
232
255
127
39
255
127
39
255
127
39
255
127
39
255
127
39
255
127
39
255
127
39
255
127
39
255
127
39
255
127
39
255
127
39
255
127
39
255
127
39
255
127
39
255
127
39
0
162
232
0
162
232
0
162
232
0
162
232
0
162
232
255
255
255
255
255
255
255
255
255
255
255
255
163
73
164
163
73
164
163
73
164
163
73
164
163
73
164
255
174
201
255
174
201
255
174
201
255
174
201
255
174
201
255
255
255
255
255
255
255
255
255
255
255
255
255
255
255
163
73
164
163
73
164
163
73
164
163
73
164
163
73
164
255
127
39
0
162
232
0
162
232
0
162
232
0
162
232
0
162
232
255
127
39
255
127
39
255
127
39
255
127
39
255
127
39
255
127
39
255
127
39
255
127
39
255
127
39
255
127
39
255
127
39
255
127
39
255
127
39
255
127
39
255
127
39
0
162
232
0
162
232
0
162
232
0
162
232
0
162
232
255
255
255
255
255
255
255
255
255
255
255
255
163
73
164
163
73
164
163
73
164
163
73
164
163
73
164
255
174
201
255
174
201
255
174
201
255
174
201
255
174
201
255
255
255
255
255
255
255
255
255
255
255
255
255
255
255
163
73
164
163
73
164
163
73
164
163
73
164
163
73
164
255
127
39
0
162
232
0
162
232
0
162
232
0
162
232
0
162
232
0
162
232
255
127
39
255
255
255
255
255
255
255
255
255
255
255
255
255
255
255
255
255
255
255
255
255
255
127
39
255
127
39
255
127
39
255
127
39
255
127
39
255
127
39
0
162
232
0
162
232
0
162
232
0
162
232
0
162
232
255
255
255
255
255
255
255
255
255
255
255
255
163
73
164
163
73
164
163
73
164
163
73
164
163
73
164
255
174
201
255
174
201
255
174
201
255
174
201
255
174
201
255
255
255
255
255
255
255
255
255
255
255
255
255
255
255
163
73
164
163
73
164
163
73
164
163
73
164
163
73
164
255
127
39
255
127
39
0
162
232
0
162
232
0
162
232
0
162
232
0
162
232
255
255
255
255
255
255
255
255
255
255
255
255
255
255
255
255
255
255
255
255
255
255
255
255
255
255
255
255
255
255
255
174
201
255
127
39
255
127
39
0
162
232
0
162
232
0
162
232
0
162
232
0
162
232
0
162
232
255
255
255
255
255
255
255
255
255
255
255
255
163
73
164
163
73
164
163
73
164
163
73
164
163
73
164
255
174
201
255
174
201
255
174
201
255
174
201
255
174
201
255
255
255
255
255
255
255
255
255
255
255
255
255
255
255
163
73
164
163
73
164
163
73
164
163
73
164
163
73
164
255
127
39
255
127
39
0
162
232
0
162
232
0
162
232
0
162
232
0
162
232
0
162
232
255
255
255
255
255
255
255
255
255
255
255
255
255
255
255
255
255
255
255
255
255
255
255
255
255
255
255
255
174
201
255
174
201
0
162
232
0
162
232
0
162
232
0
162
232
0
162
232
0
162
232
255
127
39
255
127
39
255
255
255
255
255
255
255
255
255
163
73
164
163
73
164
163
73
164
163
73
164
163
73
164
255
174
201
255
174
201
255
174
201
255
174
201
255
174
201
255
174
201
255
255
255
255
255
255
255
255
255
255
255
255
163
73
164
163
73
164
163
73
164
163
73
164
163
73
164
255
127
39
255
127
39
0
162
232
0
162
232
0
162
232
0
162
232
0
162
232
0
162
232
0
162
232
255
255
255
255
255
255
255
255
255
255
255
255
255
255
255
255
255
255
255
255
255
255
174
201
255
174
201
255
174
201
0
162
232
0
162
232
0
162
232
0
162
232
0
162
232
0
162
232
255
127
39
255
127
39
255
255
255
255
255
255
255
255
255
163
73
164
163
73
164
163
73
164
163
73
164
163
73
164
255
255
255
255
174
201
255
174
201
255
174
201
255
174
201
255
174
201
255
255
255
255
255
255
255
255
255
255
255
255
163
73
164
163
73
164
163
73
164
163
73
164
163
73
164
255
127
39
255
255
255
255
255
255
0
162
232
0
162
232
0
162
232
0
162
232
0
162
232
0
162
232
0
162
232
255
255
255
255
255
255
255
255
255
255
255
255
255
255
255
255
255
255
255
174
201
0
162
232
0
162
232
0
162
232
0
162
232
0
162
232
0
162
232
0
162
232
255
127
39
255
127
39
255
127
39
255
127
39
255
255
255
255
255
255
163
73
164
163
73
164
163
73
164
163
73
164
163
73
164
255
255
255
255
174
201
255
174
201
255
174
201
255
174
201
255
174
201
255
255
255
255
255
255
255
255
255
255
255
255
163
73
164
163
73
164
163
73
164
163
73
164
163
73
164
255
255
255
255
255
255
255
255
255
255
255
255
0
162
232
0
162
232
0
162
232
0
162
232
0
162
232
0
162
232
0
162
232
255
255
255
255
255
255
255
255
255
255
255
255
255
255
255
0
162
232
0
162
232
0
162
232
0
162
232
0
162
232
0
162
232
0
162
232
255
127
39
255
127
39
255
127
39
255
127
39
255
127
39
255
255
255
255
255
255
163
73
164
163
73
164
163
73
164
163
73
164
163
73
164
255
255
255
255
174
201
255
174
201
255
174
201
255
174
201
255
174
201
255
174
201
255
255
255
255
255
255
255
127
39
163
73
164
163
73
164
163
73
164
163
73
164
163
73
164
255
255
255
255
255
255
255
255
255
255
255
255
255
255
255
0
162
232
0
162
232
0
162
232
0
162
232
0
162
232
0
162
232
0
162
232
0
162
232
0
162
232
0
162
232
0
162
232
0
162
232
0
162
232
0
162
232
0
162
232
0
162
232
0
162
232
0
162
232
255
127
39
255
127
39
255
127
39
255
127
39
255
127
39
255
127
39
255
255
255
255
255
255
163
73
164
163
73
164
163
73
164
163
73
164
163
73
164
255
255
255
255
174
201
255
174
201
255
174
201
255
174
201
255
174
201
255
255
255
255
255
255
255
127
39
163
73
164
163
73
164
163
73
164
163
73
164
163
73
164
255
255
255
255
255
255
255
255
255
255
255
255
255
255
255
0
162
232
0
162
232
0
162
232
0
162
232
0
162
232
0
162
232
0
162
232
0
162
232
0
162
232
0
162
232
0
162
232
0
162
232
0
162
232
0
162
232
0
162
232
0
162
232
0
162
232
255
255
255
255
255
255
255
127
39
255
127
39
255
127
39
255
127
39
255
127
39
255
255
255
255
255
255
163
73
164
163
73
164
163
73
164
163
73
164
163
73
164
255
255
255
255
174
201
255
174
201
255
174
201
255
174
201
255
174
201
255
174
201
255
255
255
163
73
164
163
73
164
163
73
164
163
73
164
163
73
164
255
255
255
255
255
255
255
255
255
255
255
255
255
255
255
255
255
255
255
255
255
255
255
255
0
162
232
0
162
232
0
162
232
0
162
232
0
162
232
0
162
232
0
162
232
0
162
232
0
162
232
0
162
232
0
162
232
0
162
232
0
162
232
0
162
232
255
255
255
255
255
255
255
255
255
255
127
39
255
127
39
255
127
39
255
127
39
255
127
39
255
255
255
255
255
255
163
73
164
163
73
164
163
73
164
163
73
164
163
73
164
255
255
255
255
255
255
255
174
201
255
174
201
255
174
201
255
174
201
255
174
201
255
174
201
163
73
164
163
73
164
163
73
164
163
73
164
163
73
164
255
255
255
255
255
255
255
255
255
255
255
255
255
255
255
255
255
255
255
255
255
255
255
255
255
255
255
0
162
232
0
162
232
0
162
232
0
162
232
0
162
232
0
162
232
0
162
232
0
162
232
0
162
232
0
162
232
0
162
232
255
255
255
255
255
255
255
255
255
255
255
255
255
255
255
255
127
39
255
127
39
255
127
39
255
127
39
255
127
39
255
255
255
255
255
255
163
73
164
163
73
164
163
73
164
163
73
164
163
73
164
255
255
255
255
255
255
255
174
201
255
174
201
255
174
201
255
174
201
255
174
201
255
174
201
163
73
164
163
73
164
163
73
164
163
73
164
163
73
164
255
255
255
255
255
255
255
255
255
255
255
255
255
255
255
255
255
255
255
255
255
255
255
255
255
255
255
255
255
255
255
255
255
0
162
232
0
162
232
0
162
232
0
162
232
0
162
232
0
162
232
0
162
232
255
174
201
255
174
201
255
255
255
255
255
255
255
255
255
255
255
255
255
255
255
255
127
39
255
127
39
255
127
39
255
127
39
255
127
39
255
255
255
255
255
255
163
73
164
163
73
164
163
73
164
163
73
164
163
73
164
255
255
255
255
255
255
255
255
255
255
174
201
255
174
201
255
174
201
255
174
201
255
174
201
163
73
164
163
73
164
163
73
164
163
73
164
163
73
164
255
255
255
255
255
255
255
255
255
255
255
255
255
255
255
255
255
255
255
255
255
255
255
255
255
255
255
255
255
255
255
255
255
255
255
255
255
174
201
255
174
201
255
174
201
255
174
201
255
174
201
255
174
201
255
174
201
255
255
255
255
255
255
255
255
255
255
255
255
255
255
255
255
255
255
255
127
39
255
127
39
255
127
39
255
127
39
255
127
39
255
255
255
255
255
255
163
73
164
163
73
164
163
73
164
163
73
164
163
73
164
163
73
164
255
255
255
255
255
255
255
255
255
255
174
201
255
174
201
255
174
201
163
73
164
163
73
164
163
73
164
163
73
164
163
73
164
163
73
164
255
127
39
255
255
255
255
255
255
255
255
255
255
255
255
255
255
255
255
255
255
255
255
255
255
255
255
255
255
255
255
174
201
255
174
201
255
174
201
255
174
201
255
174
201
255
174
201
255
174
201
255
174
201
255
255
255
255
255
255
255
255
255
255
255
255
255
255
255
255
255
255
255
127
39
255
127
39
255
127
39
255
127
39
255
127
39
255
127
39
255
255
255
255
255
255
255
255
255
163
73
164
163
73
164
163
73
164
163
73
164
163
73
164
255
255
255
255
255
255
255
255
255
255
255
255
255
174
201
255
174
201
163
73
164
163
73
164
163
73
164
163
73
164
163
73
164
255
127
39
255
127
39
255
255
255
255
255
255
255
255
255
255
255
255
255
255
255
255
255
255
255
255
255
255
174
201
255
174
201
255
174
201
255
174
201
255
174
201
255
174
201
255
174
201
255
174
201
255
174
201
255
255
255
255
255
255
255
255
255
255
255
255
255
255
255
255
255
255
255
255
255
255
127
39
255
127
39
255
127
39
255
127
39
255
127
39
255
255
255
255
255
255
255
255
255
255
255
255
163
73
164
163
73
164
163
73
164
163
73
164
163
73
164
255
255
255
255
255
255
255
255
255
255
255
255
255
255
255
255
174
201
163
73
164
163
73
164
163
73
164
163
73
164
163
73
164
255
127
39
255
127
39
255
127
39
255
174
201
255
174
201
255
174
201
255
174
201
255
174
201
255
174
201
255
174
201
255
174
201
255
174
201
255
174
201
255
174
201
255
174
201
255
174
201
255
174
201
255
255
255
255
255
255
255
255
255
255
255
255
255
255
255
255
255
255
255
255
255
255
127
39
255
127
39
255
127
39
255
127
39
255
127
39
255
127
39
255
255
255
255
255
255
255
255
255
255
255
255
163
73
164
163
73
164
163
73
164
163
73
164
163
73
164
163
73
164
255
255
255
255
255
255
255
255
255
255
255
255
163
73
164
163
73
164
163
73
164
163
73
164
163
73
164
163
73
164
255
127
39
255
127
39
255
127
39
255
127
39
255
174
201
255
174
201
255
174
201
255
174
201
255
174
201
255
174
201
255
174
201
255
174
201
255
174
201
255
174
201
255
174
201
255
174
201
255
255
255
255
255
255
255
255
255
255
255
255
255
255
255
255
255
255
255
255
255
255
127
39
255
127
39
255
127
39
255
127
39
255
127
39
255
127
39
255
255
255
255
255
255
255
255
255
255
255
255
255
255
255
255
255
255
163
73
164
163
73
164
163
73
164
163
73
164
163
73
164
255
255
255
255
255
255
255
255
255
255
255
255
163
73
164
163
73
164
163
73
164
163
73
164
163
73
164
255
127
39
255
127
39
255
127
39
255
127
39
255
127
39
255
127
39
255
174
201
255
174
201
255
174
201
255
174
201
255
174
201
255
174
201
255
174
201
255
174
201
255
174
201
255
255
255
255
255
255
255
255
255
255
255
255
255
255
255
255
255
255
255
255
255
255
255
255
255
127
39
255
127
39
255
127
39
255
127
39
255
127
39
255
127
39
255
127
39
255
255
255
255
255
255
255
255
255
255
255
255
255
255
255
255
255
255
163
73
164
163
73
164
163
73
164
163
73
164
163
73
164
163
73
164
255
255
255
255
255
255
163
73
164
163
73
164
163
73
164
163
73
164
163
73
164
163
73
164
255
127
39
255
127
39
255
127
39
255
127
39
255
127
39
255
127
39
255
127
39
255
127
39
255
174
201
255
174
201
255
174
201
255
174
201
255
174
201
255
174
201
255
255
255
255
255
255
255
255
255
255
255
255
255
255
255
255
255
255
255
255
255
255
127
39
255
127
39
255
127
39
255
127
39
255
127
39
255
127
39
255
127
39
255
127
39
255
255
255
255
255
255
255
255
255
255
255
255
255
255
255
255
255
255
255
255
255
255
255
255
163
73
164
163
73
164
163
73
164
163
73
164
163
73
164
163
73
164
163
73
164
163
73
164
163
73
164
163
73
164
163
73
164
163
73
164
255
255
255
255
255
255
255
127
39
255
127
39
255
127
39
255
127
39
255
127
39
255
127
39
255
127
39
255
127
39
255
127
39
255
127
39
255
255
255
255
255
255
255
255
255
255
255
255
255
255
255
255
255
255
255
255
255
255
255
255
255
127
39
255
127
39
255
127
39
255
127
39
255
127
39
255
127
39
255
127
39
255
127
39
255
127
39
255
255
255
255
255
255
255
255
255
255
255
255
255
255
255
255
255
255
255
255
255
255
255
255
255
255
255
163
73
164
163
73
164
163
73
164
163
73
164
163
73
164
163
73
164
163
73
164
163
73
164
163
73
164
163
73
164
163
73
164
163
73
164
255
255
255
255
255
255
255
255
255
255
127
39
255
127
39
255
127
39
255
127
39
255
127
39
255
127
39
255
127
39
255
127
39
255
127
39
255
127
39
255
127
39
255
127
39
255
127
39
255
127
39
255
127
39
255
127
39
255
127
39
255
127
39
255
127
39
255
127
39
255
127
39
255
127
39
255
127
39
255
127
39
255
127
39
255
255
255
255
255
255
255
255
255
255
255
255
255
255
255
255
255
255
255
255
255
255
255
255
255
255
255
255
255
255
255
255
255
163
73
164
163
73
164
163
73
164
163
73
164
163
73
164
163
73
164
163
73
164
163
73
164
163
73
164
163
73
164
255
255
255
255
255
255
255
255
255
255
255
255
255
255
255
255
127
39
255
127
39
255
127
39
255
127
39
255
127
39
255
127
39
255
127
39
255
127
39
255
127
39
255
127
39
255
127
39
255
127
39
255
127
39
255
127
39
255
127
39
255
127
39
255
127
39
255
127
39
255
127
39
255
127
39
255
127
39
255
127
39
255
127
39
255
255
255
255
255
255
255
255
255
255
255
255
255
255
255
255
255
255
255
255
255
255
255
255
255
255
255
255
255
255
255
255
255
255
255
255
255
255
255
163
73
164
163
73
164
163
73
164
163
73
164
163
73
164
163
73
164
163
73
164
163
73
164
255
255
255
255
255
255
255
255
255
255
255
255
255
255
255
255
255
255
255
255
255
255
255
255
255
127
39
255
127
39
255
127
39
255
127
39
255
127
39
255
127
39
255
127
39
255
127
39
255
127
39
255
127
39
255
127
39
255
127
39
255
127
39
255
127
39
255
127
39
255
127
39
255
127
39
255
127
39
255
127
39
255
255
255
255
255
255
255
255
255
255
255
255
255
255
255
255
255
255
255
255
255
255
255
255
255
255
255
255
255
255
255
255
255
255
255
255
255
255
255
255
255
255
255
255
255
255
255
255
255
255
255
163
73
164
163
73
164
163
73
164
163
73
164
255
255
255
255
255
255
255
255
255
255
255
255
255
255
255
255
255
255
255
255
255
255
255
255
255
255
255
255
255
255
255
255
255
255
255
255
255
127
39
255
127
39
255
127
39
255
127
39
255
127
39
255
127
39
255
127
39
255
127
39
255
127
39
255
127
39
255
127
39
255
127
39
255
127
39
255
127
39
255
127
39
255
255
255
255
255
255
255
255
255
255
255
255
255
255
255
255
255
255
255
255
255
255
255
255
255
255
255
255
255
255
255
255
255
255
255
255
255
255
255
255
255
255
255
255
255
255
255
255
255
255
255
255
255
255
255
255
255
255
255
255
255
255
255
255
255
255
255
255
255
255
255
255
255
255
255
255
255
255
255
255
255
255
255
255
255
255
255
255
255
255
255
255
255
255
255
255
255
255
255
255
255
255
255
255
255
255
255
255
255
255
255
255
255
255
255
127
39
255
127
39
255
127
39
255
127
39
255
127
39
255
127
39
255
127
39
255
127
39
255
127
39
255
255
255
255
255
255
255
255
255
255
255
255
255
255
255
255
255
255
255
255
255
255
255
255
255
255
255
255
255
255
255
255
255
255
255
255
255
255
255
255
255
255
255
255
255
255
255
255
255
255
255
255
255
255
255
255
255
255
255
255
255
255
255
255
255
255
255
255
255
255
255
255
255
255
255
255
255
255
255
255
255
255
255
255
255
255
255
255
255
255
255
255
255
255
255
255
255
255
255
255
255
255
255
255
255
255
255
255
255
255
255
255
255
255
255
255
255
255
255
255
255
255
255
255
255
255
255
255
255
255
255
255
255
255
255
255
255
255
255
255
255
255
255
255
255
255
255
255
255
255
255
255
255
255
255
255
255
255
255
255
255
255
255
255
255
255
255
255
255
255
255
255
255
255
255
255
255
255
255
255
255
255
255
255
255
255
255
255
255
255
255
255
255
255
255
255
255
255
255
255
255
255
255
255
255
255
255
255
255
255
255
255
255
255
255
255
255
255
255
255
255
255
255
255
255
255
255
255
255
255
255
255
255
255
255
255
255
255
255
255
255
255
255
255
255
255
255
255
255
255
255
255
255
255
255
255
255
255
255
255
255
255
255
255
255
255
255
255
255
255
255
255
255
255
255
255
255
255
255
255
255
255
255
255
255
255
255
255
255
255
255
255
255
255
255
255
255
255
255
255
255
255
255
255
255
255
255
255
255
255
255
255
255
255
255
255
255
255
255
255
255
255
255
255
255
255
255
255
255
255
255
255
255
255
255
255
255
255
255
255
255
255
